REM GENRE Soundtrack
REM DATE 2015
REM DISCID 250FF227
REM COMMENT "ExactAudioCopy v1.1"
PERFORMER "川田瑠夏"
TITLE "ご注文はうさぎですか?? ORIGINAL SOUNDTRACK"
FILE "GNCA-1476.wav" WAVE
  TRACK 01 AUDIO
    TITLE "木組みの街.雪解けと春のはじまり"
    PERFORMER "川田瑠夏"
    INDEX 01 00:00:00
  TRACK 02 AUDIO
    TITLE "おねえちゃんにまかせなさ.い！"
    PERFORMER "川田瑠夏"
    INDEX 00 03:17:70
    INDEX 01 03:20:00
  TRACK 03 AUDIO
    TITLE "Rabbit's Time"
    PERFORMER "川田瑠夏"
    INDEX 00 05:15:61
    INDEX 01 05:17:66
  TRACK 04 AUDIO
    TITLE "しょうがないですね"
    PERFORMER "川田瑠夏"
    INDEX 00 06:53:30
    INDEX 01 06:55:35
  TRACK 05 AUDIO
    TITLE "あんこの夢.甘兎へようこそ☆☆"
    PERFORMER "川田瑠夏"
    INDEX 00 08:37:19
    INDEX 01 08:39:24
  TRACK 06 AUDIO
    TITLE "ちょっとむずかしいです"
    PERFORMER "川田瑠夏"
    INDEX 00 10:35:17
    INDEX 01 10:37:22
  TRACK 07 AUDIO
    TITLE "〆切は苦手です."
    PERFORMER "川田瑠夏"
    INDEX 00 12:12:39
    INDEX 01 12:14:44
  TRACK 08 AUDIO
    TITLE "大好きな笑顔"
    PERFORMER "川田瑠夏"
    INDEX 00 14:06:42
    INDEX 01 14:08:47
  TRACK 09 AUDIO
    TITLE "Eyecatch.hop!."
    PERFORMER "川田瑠夏"
    INDEX 00 16:34:13
    INDEX 01 16:36:18
  TRACK 10 AUDIO
    TITLE "もふもふとご満悦"
    PERFORMER "川田瑠夏"
    INDEX 00 16:46:49
    INDEX 01 16:48:54
  TRACK 11 AUDIO
    TITLE "モカの温もり"
    PERFORMER "川田瑠夏"
    INDEX 00 18:35:43
    INDEX 01 18:37:48
  TRACK 12 AUDIO
    TITLE "お嬢様の昼下がり"
    PERFORMER "川田瑠夏"
    INDEX 00 20:14:17
    INDEX 01 20:16:22
  TRACK 13 AUDIO
    TITLE "可憐な乙女心"
    PERFORMER "川田瑠夏"
    INDEX 00 22:01:71
    INDEX 01 22:05:02
  TRACK 14 AUDIO
    TITLE "ノーポイッ！.solo piano ver.."
    PERFORMER "川田瑠夏"
    INDEX 00 23:49:39
    INDEX 01 23:51:44
  TRACK 15 AUDIO
    TITLE "おやすみ前のラテアート"
    PERFORMER "川田瑠夏"
    INDEX 00 26:44:34
    INDEX 01 26:46:39
  TRACK 16 AUDIO
    TITLE "えーとえーと、、あれれ?"
    PERFORMER "川田瑠夏"
    INDEX 00 28:39:49
    INDEX 01 28:41:54
  TRACK 17 AUDIO
    TITLE "困ったなあ"
    PERFORMER "川田瑠夏"
    INDEX 00 30:05:56
    INDEX 01 30:07:61
  TRACK 18 AUDIO
    TITLE "眩しい光"
    PERFORMER "川田瑠夏"
    INDEX 00 31:38:61
    INDEX 01 31:40:66
  TRACK 19 AUDIO
    TITLE "後ろに気をつけろ!!"
    PERFORMER "川田瑠夏"
    INDEX 00 33:15:48
    INDEX 01 33:17:53
  TRACK 20 AUDIO
    TITLE "ピンチ!!"
    PERFORMER "川田瑠夏"
    INDEX 00 35:08:68
    INDEX 01 35:09:73
  TRACK 21 AUDIO
    TITLE "焙煎しすぎてしまった…!!"
    PERFORMER "川田瑠夏"
    INDEX 00 36:47:47
    INDEX 01 36:49:52
  TRACK 22 AUDIO
    TITLE "勝負!!"
    PERFORMER "川田瑠夏"
    INDEX 00 38:36:22
    INDEX 01 38:37:27
  TRACK 23 AUDIO
    TITLE "突撃!!"
    PERFORMER "川田瑠夏"
    INDEX 00 40:16:12
    INDEX 01 40:18:17
  TRACK 24 AUDIO
    TITLE "覚悟しろっ"
    PERFORMER "川田瑠夏"
    INDEX 00 41:56:53
    INDEX 01 41:58:58
  TRACK 25 AUDIO
    TITLE "白鳥のパ.ド.ドゥ"
    PERFORMER "川田瑠夏"
    INDEX 00 43:34:29
    INDEX 01 43:36:34
  TRACK 26 AUDIO
    TITLE "un, deux, trois"
    PERFORMER "川田瑠夏"
    INDEX 00 45:32:16
    INDEX 01 45:34:21
  TRACK 27 AUDIO
    TITLE "トゥシューズの夢物語"
    PERFORMER "川田瑠夏"
    INDEX 00 47:07:59
    INDEX 01 47:09:64
  TRACK 28 AUDIO
    TITLE "Eyecatch.café."
    PERFORMER "川田瑠夏"
    INDEX 00 49:15:68
    INDEX 01 49:17:73
  TRACK 29 AUDIO
    TITLE "Rabbit House.BAR TIME"
    PERFORMER "川田瑠夏"
    INDEX 00 49:27:51
    INDEX 01 49:29:56
  TRACK 30 AUDIO
    TITLE "ときめきポポロン..solo guitar ver.."
    PERFORMER "川田瑠夏"
    INDEX 00 51:10:55
    INDEX 01 51:13:60
  TRACK 31 AUDIO
    TITLE "焼きたての香りに包まれて"
    PERFORMER "川田瑠夏"
    INDEX 00 53:40:36
    INDEX 01 53:42:01
  TRACK 32 AUDIO
    TITLE "さあはじまるよ！"
    PERFORMER "川田瑠夏"
    INDEX 00 55:26:48
    INDEX 01 55:28:26
  TRACK 33 AUDIO
    TITLE "陽だまりの優しさ"
    PERFORMER "川田瑠夏"
    INDEX 00 57:57:06
    INDEX 01 57:58:52
  TRACK 34 AUDIO
    TITLE "秘めた想い"
    PERFORMER "川田瑠夏"
    INDEX 00 59:40:69
    INDEX 01 59:43:06
  TRACK 35 AUDIO
    TITLE "琥珀色のロマンス"
    PERFORMER "川田瑠夏"
    INDEX 00 61:28:39
    INDEX 01 61:30:52
  TRACK 36 AUDIO
    TITLE "懐かしい安らぎ"
    PERFORMER "川田瑠夏"
    INDEX 00 63:12:17
    INDEX 01 63:14:61
  TRACK 37 AUDIO
    TITLE "ちょっぴりほろ苦さ"
    PERFORMER "川田瑠夏"
    INDEX 00 65:11:57
    INDEX 01 65:14:25
  TRACK 38 AUDIO
    TITLE "またのお越しを.店主より(long ver.)"
    PERFORMER "川田瑠夏"
    INDEX 00 67:08:70
    INDEX 01 67:11:34
  TRACK 39 AUDIO
    TITLE "またのお越しを.店主より(short ver.)"
    PERFORMER "川田瑠夏"
    INDEX 01 67:46:22
